<?xml version="1.0" encoding="UTF-8"?>
<!DOCTYPE svg PUBLIC "-//W3C//DTD SVG 1.1//EN" "http://www.w3.org/Graphics/SVG/1.1/DTD/svg11.dtd">
<!-- Creator: CorelDRAW X7 -->
<svg xmlns="http://www.w3.org/2000/svg" xml:space="preserve" width="151.948mm" height="151.948mm" version="1.1" style="shape-rendering:geometricPrecision; text-rendering:geometricPrecision; image-rendering:optimizeQuality; fill-rule:evenodd; clip-rule:evenodd"
viewBox="0 0 46363 46363"
 xmlns:xlink="http://www.w3.org/1999/xlink">
 <defs>
  <style type="text/css">
   <![CDATA[
    .fil1 {fill:black}
    .fil0 {fill:#E6E6E6}
   ]]>
  </style>
 </defs>
 <g id="Layer_x0020_1">
  <metadata id="CorelCorpID_0Corel-Layer"/>
  <circle class="fil0" cx="23181" cy="23181" r="23181"/>
  <path class="fil1" d="M25473 27684c0,0 1778,-1018 2244,-1263 464,-245 945,-307 1237,-129 442,271 4156,2741 4468,2960 313,219 464,845 34,1458 -429,613 -2404,3037 -3241,3011 -839,-27 -4324,-103 -10897,-6678 -6572,-6573 -6650,-10060 -6677,-10898 -26,-838 2398,-2814 3011,-3242 614,-429 1240,-268 1458,34 248,343 2690,4045 2959,4469 184,290 116,773 -130,1238 -244,466 -1262,2244 -1262,2244 0,0 718,1224 3145,3650 2427,2427 3651,3146 3651,3146z"/>
 </g>
</svg>
