<?xml version="1.0" encoding="UTF-8"?>
<!DOCTYPE svg PUBLIC "-//W3C//DTD SVG 1.1//EN" "http://www.w3.org/Graphics/SVG/1.1/DTD/svg11.dtd">
<!-- Creator: CorelDRAW X7 -->
<svg xmlns="http://www.w3.org/2000/svg" xml:space="preserve" width="197.884mm" height="19.1931mm" version="1.1" style="shape-rendering:geometricPrecision; text-rendering:geometricPrecision; image-rendering:optimizeQuality; fill-rule:evenodd; clip-rule:evenodd"
viewBox="0 0 11049 1072"
 xmlns:xlink="http://www.w3.org/1999/xlink">
 <defs>
  <style type="text/css">
   <![CDATA[
    .fil1 {fill:#014E1A;fill-rule:nonzero}
    .fil0 {fill:red;fill-rule:nonzero}
   ]]>
  </style>
 </defs>
 <g id="Layer_x0020_1">
  <metadata id="CorelCorpID_0Corel-Layer"/>
  <polygon class="fil0" points="293,1072 293,379 0,379 0,275 698,275 698,379 406,379 406,1072 "/>
  <path id="1" class="fil0" d="M1032 735l248 0 -126 -287 -122 287zm-263 337l345 -797 83 0 350 797 -118 0 -103 -235 -339 0 -101 235 -117 0zm226 -874l112 -198 101 0 112 198 -60 0 -102 -137 -102 137 -61 0z"/>
  <polygon id="2" class="fil0" points="1886,1072 1886,673 1578,275 1713,275 1945,577 2183,275 2321,275 2001,679 2001,1072 "/>
  <polygon id="3" class="fil0" points="2727,1072 2727,275 2826,275 3351,893 3351,275 3464,275 3464,1072 3362,1072 2840,453 2840,1072 "/>
  <path id="4" class="fil0" d="M3874 735l248 0 -126 -287 -122 287zm-263 337l345 -797 83 0 350 797 -118 0 -102 -235 -340 0 -101 235 -117 0z"/>
  <polygon id="5" class="fil0" points="4537,1072 4537,275 4636,275 4922,610 5209,275 5308,275 5308,1072 5198,1072 5198,450 4922,771 4647,450 4647,1072 "/>
  <path id="6" class="fil1" d="M6239 627l123 0c55,0 95,-10 120,-29 25,-20 38,-52 38,-95 0,-44 -13,-75 -38,-95 -25,-20 -65,-30 -120,-30l-123 0 0 249zm-114 445l0 -797 249 0c83,0 148,20 195,60 46,41 69,96 69,168 0,71 -23,126 -69,166 -47,40 -112,60 -195,60l-135 0 0 343 -114 0z"/>
  <polygon id="7" class="fil1" points="6846,1072 6846,275 6959,275 6959,618 7418,618 7418,275 7531,275 7531,1072 7418,1072 7418,725 6959,725 6959,1072 "/>
  <path id="8" class="fil1" d="M7941 735l248 0 -125 -287 -123 287zm-262 337l345 -797 83 0 349 797 -117 0 -103 -235 -339 0 -102 235 -116 0z"/>
  <path id="9" class="fil1" d="M8603 1072l0 -797 233 0c81,0 143,19 186,57 44,38 66,92 66,161 0,53 -12,95 -36,127 -24,32 -62,56 -114,71 14,8 26,17 38,29 12,12 27,32 46,60l193 292 -138 0 -136 -209c-41,-63 -74,-104 -100,-121 -25,-17 -55,-26 -90,-26l-34 0 0 356 -114 0zm114 -452l95 0c53,0 92,-10 119,-30 26,-21 39,-52 39,-94 0,-44 -12,-75 -37,-95 -25,-19 -66,-29 -121,-29l-95 0 0 248z"/>
  <polygon id="10" class="fil1" points="9351,1072 9351,275 9450,275 9737,610 10024,275 10123,275 10123,1072 10012,1072 10012,450 9737,771 9462,450 9462,1072 "/>
  <path id="11" class="fil1" d="M10533 735l249 0 -126 -287 -123 287zm-262 337l345 -797 83 0 350 797 -118 0 -103 -235 -339 0 -101 235 -117 0z"/>
 </g>
</svg>
