<?xml version="1.0" encoding="UTF-8"?>
<!DOCTYPE svg PUBLIC "-//W3C//DTD SVG 1.1//EN" "http://www.w3.org/Graphics/SVG/1.1/DTD/svg11.dtd">
<!-- Creator: CorelDRAW X7 -->
<svg xmlns="http://www.w3.org/2000/svg" xml:space="preserve" width="263.791mm" height="51.7723mm" version="1.1" style="shape-rendering:geometricPrecision; text-rendering:geometricPrecision; image-rendering:optimizeQuality; fill-rule:evenodd; clip-rule:evenodd"
viewBox="0 0 14311 2809"
 xmlns:xlink="http://www.w3.org/1999/xlink">
 <defs>
  <style type="text/css">
   <![CDATA[
    .fil2 {fill:#014E1A}
    .fil0 {fill:#CCCCCC}
    .fil1 {fill:white}
    .fil4 {fill:black;fill-rule:nonzero}
    .fil5 {fill:#014E1A;fill-rule:nonzero}
    .fil3 {fill:red;fill-rule:nonzero}
   ]]>
  </style>
 </defs>
 <g id="Layer_x0020_1">
  <metadata id="CorelCorpID_0Corel-Layer"/>
  <g id="_3036789441904">
   <circle class="fil0" cx="1404" cy="1404" r="1404"/>
   <circle class="fil1" cx="1404" cy="1404" r="1241"/>
   <g>
    <path class="fil2" d="M1119 1488l0 -835c0,-16 12,-28 28,-28l515 0c16,0 28,12 28,28l0 841 -292 -295 -279 289z"/>
    <rect class="fil2" x="630" y="1119" width="1550" height="571" rx="28" ry="28"/>
    <polygon class="fil1" points="923,1692 1886,1692 1404,1199 "/>
    <path class="fil3" d="M1122 2184l0 -489 -122 0 404 -414 405 414 -123 0 0 489 -564 0zm0 -245m-61 -244m141 -207m405 0m141 207m-62 244m-282 245"/>
   </g>
  </g>
  <polygon class="fil4" points="3576,2571 3576,1880 3630,1880 3872,2199 4113,1880 4168,1880 4168,2571 4115,2571 4115,1961 3872,2283 3628,1961 3628,2571 "/>
  <path id="1" class="fil4" d="M4756 2521c-28,20 -55,35 -82,45 -26,10 -54,15 -82,15 -64,0 -115,-22 -154,-67 -39,-45 -58,-104 -58,-178 0,-70 18,-125 55,-167 36,-42 84,-63 144,-63 55,0 100,20 134,60 34,39 51,92 51,158l0 2 -334 0 0 6c0,59 15,107 45,144 30,37 69,56 116,56 29,0 56,-6 82,-16 27,-11 54,-28 83,-51l0 56zm-320 -238l272 0c-5,-41 -19,-73 -44,-97 -24,-25 -54,-37 -88,-37 -36,0 -67,12 -93,37 -26,25 -41,57 -47,97z"/>
  <path id="2" class="fil4" d="M5261 2482l0 -280c-16,-18 -33,-31 -52,-39 -18,-9 -39,-13 -63,-13 -48,0 -86,18 -116,53 -30,35 -45,81 -45,138 0,57 15,103 45,139 30,35 68,53 116,53 24,0 46,-4 64,-12 18,-9 35,-21 51,-39zm0 56c-18,14 -36,24 -56,31 -20,7 -41,10 -65,10 -62,0 -113,-22 -151,-65 -39,-44 -58,-101 -58,-172 0,-70 19,-127 58,-171 38,-44 89,-65 151,-65 24,0 45,3 65,10 20,7 38,17 56,31l0 -267 46 0 0 691 -46 0 0 -33z"/>
  <path id="3" class="fil4" d="M5990 2422l-161 -181c-46,21 -81,45 -104,73 -24,28 -35,59 -35,93 0,35 11,64 35,87 23,24 52,36 86,36 34,0 65,-9 96,-28 30,-18 57,-44 83,-80zm-146 -242c41,-20 70,-41 89,-64 19,-23 29,-49 29,-77 0,-30 -9,-54 -28,-72 -18,-18 -43,-27 -73,-27 -27,0 -50,9 -69,28 -18,18 -27,41 -27,69 0,23 6,46 19,70 13,23 33,48 60,73zm279 391l-97 -108c-30,39 -62,68 -99,88 -36,19 -77,28 -121,28 -52,0 -93,-15 -125,-47 -32,-31 -48,-72 -48,-122 0,-42 14,-81 42,-118 28,-36 67,-67 118,-91 -26,-27 -46,-54 -58,-81 -13,-26 -20,-53 -20,-81 0,-42 15,-77 43,-105 29,-28 65,-42 108,-42 44,0 79,14 106,41 27,27 40,62 40,104 0,37 -11,70 -33,100 -22,30 -56,57 -101,80l143 162c15,-20 28,-43 39,-69 11,-25 21,-55 29,-87l54 0c-8,38 -20,73 -34,105 -15,32 -33,62 -54,89l136 154 -68 0z"/>
  <polygon id="4" class="fil4" points="6682,2571 6682,1930 6441,1930 6441,1880 6979,1880 6979,1930 6738,1930 6738,2571 "/>
  <path id="5" class="fil4" d="M7331 2521c-28,20 -55,35 -81,45 -27,10 -54,15 -82,15 -64,0 -116,-22 -154,-67 -39,-45 -59,-104 -59,-178 0,-70 19,-125 55,-167 37,-42 85,-63 145,-63 55,0 100,20 134,60 34,39 51,92 51,158l0 2 -334 0 0 6c0,59 15,107 45,144 30,37 68,56 116,56 28,0 56,-6 82,-16 26,-11 54,-28 82,-51l0 56zm-319 -238l272 0c-5,-41 -20,-73 -44,-97 -25,-25 -54,-37 -89,-37 -35,0 -66,12 -92,37 -26,25 -42,57 -47,97z"/>
  <path id="6" class="fil4" d="M7844 2553c-18,9 -35,16 -53,20 -18,5 -36,7 -55,7 -66,0 -120,-22 -163,-67 -42,-44 -63,-101 -63,-171 0,-67 22,-124 65,-169 44,-46 99,-68 164,-68 17,0 33,1 49,5 15,3 31,8 47,15l0 57c-16,-11 -32,-18 -49,-23 -17,-4 -34,-7 -53,-7 -47,0 -88,19 -121,56 -33,37 -50,82 -50,135 0,54 17,99 50,136 33,36 73,55 121,55 18,0 36,-4 55,-10 18,-6 37,-15 56,-28l0 57z"/>
  <path id="7" class="fil4" d="M8024 2571l0 -691 47 0 0 308c21,-27 43,-48 68,-61 24,-14 52,-20 81,-20 48,0 85,16 112,48 26,32 39,78 39,138l0 278 -48 0 0 -254c0,-55 -9,-96 -26,-123 -18,-27 -45,-41 -82,-41 -29,0 -56,8 -81,25 -24,16 -45,40 -63,72l0 321 -47 0z"/>
  <path id="8" class="fil4" d="M9285 1978c-27,-19 -52,-33 -77,-43 -24,-9 -48,-13 -72,-13 -39,0 -71,12 -96,36 -25,25 -38,56 -38,93 0,30 9,55 25,74 16,19 50,41 103,65 3,1 8,3 14,6 60,26 100,51 120,75 14,16 25,34 32,55 7,21 11,43 11,66 0,56 -18,101 -54,136 -36,36 -82,53 -138,53 -28,0 -56,-5 -83,-15 -28,-10 -56,-26 -84,-46l0 -67c31,25 60,44 87,56 27,12 54,19 79,19 43,0 76,-13 101,-37 25,-25 37,-59 37,-101 0,-32 -8,-57 -25,-77 -17,-20 -55,-43 -115,-70 -62,-27 -105,-55 -128,-83 -22,-28 -34,-63 -34,-106 0,-54 18,-98 52,-132 35,-34 80,-51 136,-51 26,0 50,4 74,11 25,7 49,19 73,35l0 61z"/>
  <path id="9" class="fil4" d="M9522 2343c0,53 17,98 50,135 33,37 74,56 121,56 47,0 87,-19 120,-56 33,-37 50,-82 50,-135 0,-53 -17,-98 -50,-135 -33,-37 -73,-56 -120,-56 -48,0 -88,19 -121,56 -34,37 -50,82 -50,135zm-52 -1c0,-66 21,-122 64,-168 44,-46 96,-69 159,-69 62,0 114,23 158,69 43,46 65,103 65,168 0,32 -6,62 -18,92 -11,29 -28,55 -49,78 -21,22 -45,39 -71,51 -27,11 -55,17 -85,17 -63,0 -115,-23 -159,-69 -43,-46 -64,-102 -64,-169z"/>
  <polygon id="10" class="fil4" points="10107,2571 10107,1880 10155,1880 10155,2571 "/>
  <path id="11" class="fil4" d="M10673 2501c-21,26 -43,46 -68,59 -24,14 -51,20 -81,20 -48,0 -86,-16 -112,-48 -26,-32 -39,-77 -39,-137l0 -280 47 0 0 256c0,55 9,96 27,122 18,27 46,41 82,41 30,0 57,-8 81,-24 24,-16 45,-40 63,-71l0 -324 47 0 0 456 -47 0 0 -70z"/>
  <path id="12" class="fil4" d="M11005 2459c0,31 4,51 12,61 8,10 22,15 42,15 10,0 21,-2 33,-6 11,-4 24,-10 38,-18l0 50c-13,7 -26,11 -39,14 -13,4 -26,5 -39,5 -35,0 -60,-9 -75,-27 -14,-18 -21,-50 -21,-95l0 -301 -92 0 0 -42 93 0 0 -104 37 -45 11 0 0 149 115 0 0 42 -115 0 0 302z"/>
  <path id="13" class="fil4" d="M11294 1964l0 -84 48 0 0 84 -48 0zm0 607l0 -456 48 0 0 456 -48 0z"/>
  <path id="14" class="fil4" d="M11586 2343c0,53 16,98 50,135 33,37 73,56 121,56 47,0 87,-19 120,-56 33,-37 49,-82 49,-135 0,-53 -16,-98 -49,-135 -33,-37 -73,-56 -120,-56 -48,0 -89,19 -122,56 -33,37 -49,82 -49,135zm-53 -1c0,-66 22,-122 65,-168 43,-46 96,-69 159,-69 61,0 114,23 157,69 44,46 65,103 65,168 0,32 -5,62 -17,92 -11,29 -28,55 -49,78 -21,22 -45,39 -72,51 -26,11 -54,17 -84,17 -63,0 -116,-23 -159,-69 -43,-46 -65,-102 -65,-169z"/>
  <path id="15" class="fil4" d="M12167 2571l0 -456 47 0 0 73c21,-28 43,-48 68,-61 25,-14 51,-20 80,-20 49,0 86,16 112,48 27,32 40,78 40,138l0 278 -48 0 0 -254c0,-55 -9,-96 -27,-123 -18,-27 -45,-41 -81,-41 -30,0 -57,8 -81,25 -24,16 -45,40 -63,72l0 321 -47 0z"/>
  <polygon class="fil5" points="3860,1269 3860,596 3576,596 3576,495 4254,495 4254,596 3970,596 3970,1269 "/>
  <path id="1" class="fil5" d="M4578 941l241 0 -122 -278 -119 278zm-255 328l335 -774 81 0 339 774 -114 0 -100 -228 -329 0 -99 228 -113 0zm220 -849l109 -192 98 0 109 192 -59 0 -99 -133 -99 133 -59 0z"/>
  <polygon id="2" class="fil5" points="5408,1269 5408,881 5109,495 5240,495 5466,789 5697,495 5830,495 5520,887 5520,1269 "/>
  <polygon id="3" class="fil5" points="6225,1269 6225,495 6321,495 6831,1096 6831,495 6941,495 6941,1269 6843,1269 6335,668 6335,1269 "/>
  <path id="4" class="fil5" d="M7340 941l241 0 -122 -278 -119 278zm-256 328l336 -774 80 0 340 774 -114 0 -100 -228 -330 0 -98 228 -114 0z"/>
  <polygon id="5" class="fil5" points="7984,1269 7984,495 8080,495 8358,820 8637,495 8734,495 8734,1269 8626,1269 8626,665 8358,976 8091,665 8091,1269 "/>
  <path id="6" class="fil5" d="M9637 837l120 0c54,0 93,-10 117,-29 24,-19 36,-49 36,-92 0,-42 -12,-73 -36,-92 -24,-20 -63,-29 -117,-29l-120 0 0 242zm-110 432l0 -774 242 0c81,0 144,19 189,58 45,40 68,94 68,163 0,69 -23,123 -68,162 -45,38 -108,58 -189,58l-132 0 0 333 -110 0z"/>
  <polygon id="7" class="fil5" points="10227,1269 10227,495 10337,495 10337,828 10784,828 10784,495 10893,495 10893,1269 10784,1269 10784,932 10337,932 10337,1269 "/>
  <path id="8" class="fil5" d="M11292 941l241 0 -122 -278 -119 278zm-255 328l335 -774 81 0 339 774 -114 0 -100 -228 -329 0 -99 228 -113 0z"/>
  <path id="9" class="fil5" d="M11935 1269l0 -774 226 0c79,0 139,18 182,55 42,37 63,89 63,157 0,51 -12,92 -35,123 -23,31 -60,54 -110,69 13,7 25,17 36,28 12,12 27,31 45,59l188 283 -134 0 -133 -203c-40,-61 -72,-100 -96,-117 -25,-17 -54,-26 -88,-26l-33 0 0 346 -111 0zm111 -439l92 0c51,0 90,-10 115,-30 26,-20 39,-50 39,-91 0,-42 -12,-72 -37,-92 -24,-19 -63,-28 -117,-28l-92 0 0 241z"/>
  <polygon id="10" class="fil5" points="12662,1269 12662,495 12758,495 13037,820 13316,495 13412,495 13412,1269 13304,1269 13304,665 13037,976 12769,665 12769,1269 "/>
  <path id="11" class="fil5" d="M13811 941l241 0 -122 -278 -119 278zm-256 328l336 -774 80 0 340 774 -114 0 -100 -228 -330 0 -98 228 -114 0z"/>
 </g>
</svg>
